<?xml version="1.0" encoding="utf-8"?>
<!-- Generator: Adobe Illustrator 25.3.1, SVG Export Plug-In . SVG Version: 6.00 Build 0)  -->
<svg version="1.1" id="Layer_1" xmlns="http://www.w3.org/2000/svg" xmlns:xlink="http://www.w3.org/1999/xlink" x="0px" y="0px"
	 viewBox="0 0 562 525" style="enable-background:new 0 0 562 525;" xml:space="preserve">
<style type="text/css">
	.st0{fill:#191B1D;}
	.st1{opacity:0.5;fill:#6AEA5C;}
	.st2{fill:#6AEA5C;}
	.st3{fill:none;stroke:#2F2F2F;stroke-width:2;stroke-miterlimit:10;stroke-dasharray:3.993,3.993;}
	.st4{fill:none;stroke:#2F2F2F;stroke-width:2;stroke-miterlimit:10;stroke-dasharray:3.9985,3.9985;}
</style>
<g>
	<g>
		
			<rect x="37" y="61" transform="matrix(0.2009 -0.9796 0.9796 0.2009 -23.7783 243.8017)" class="st0" width="201.2" height="150.9"/>
		
			<rect x="-5.6" y="270.4" transform="matrix(0.2009 -0.9796 0.9796 0.2009 -263.2162 369.0365)" class="st0" width="200.3" height="150.9"/>
		
			<rect x="211.2" y="37.8" transform="matrix(0.2009 -0.9796 0.9796 0.2009 137.8545 395.5441)" class="st0" width="200.3" height="150.9"/>
		
			<rect x="366.6" y="128.6" transform="matrix(0.2009 -0.9796 0.9796 0.2009 173.3455 620.6846)" class="st0" width="201.2" height="150.9"/>
		
			<rect x="315.5" y="336.3" transform="matrix(0.2009 -0.9796 0.9796 0.2009 -71.1724 736.2059)" class="st0" width="200.3" height="150.9"/>
		
			<rect x="165.4" y="248.9" transform="matrix(0.2009 -0.9796 0.9796 0.2009 -104.7958 519.3663)" class="st0" width="201.2" height="150"/>
	</g>
	<g>
		<circle class="st1" cx="281" cy="262.5" r="105"/>
		<circle class="st2" cx="281" cy="262.5" r="67.5"/>
		<g>
			<circle class="st3" cx="281" cy="262.5" r="227.5"/>
		</g>
		<g>
			<circle class="st4" cx="281" cy="262.5" r="168"/>
		</g>
	</g>
</g>
</svg>
