<svg xmlns="http://www.w3.org/2000/svg" width="30" height="30" viewBox="0 0 30 30"><polygon points="20 0 10 0 0 0 0 10 0 20 0 30 10 30 20 30 30 30 30 20 30 10 30 0 20 0" fill="none"/><path d="M-45.07,416.66h-6.5a.76.76,0,0,0-.75.75.76.76,0,0,0,.75.75h5.25a.5.5,0,0,1,.5.5v5.25a.76.76,0,0,0,.75.75.76.76,0,0,0,.75-.75v-6.5A.76.76,0,0,0-45.07,416.66Z" transform="translate(73.32 -415.66)" fill="#231f20"/><path d="M-71.57,416.66h6.5a.76.76,0,0,1,.75.75.76.76,0,0,1-.75.75h-5.25a.5.5,0,0,0-.5.5v5.25a.76.76,0,0,1-.75.75.76.76,0,0,1-.75-.75v-6.5A.76.76,0,0,1-71.57,416.66Z" transform="translate(73.32 -415.66)" fill="#231f20"/><rect x="11" y="1" width="8" height="1.5" rx="0.75" fill="#231f20"/><path d="M-45.07,444.66h-6.5a.76.76,0,0,1-.75-.75.76.76,0,0,1,.75-.75h5.25a.5.5,0,0,0,.5-.5v-5.25a.76.76,0,0,1,.75-.75.76.76,0,0,1,.75.75v6.5A.76.76,0,0,1-45.07,444.66Z" transform="translate(73.32 -415.66)" fill="#231f20"/><path d="M-71.57,444.66h6.5a.76.76,0,0,0,.75-.75.76.76,0,0,0-.75-.75h-5.25a.5.5,0,0,1-.5-.5v-5.25a.76.76,0,0,0-.75-.75.76.76,0,0,0-.75.75v6.5A.76.76,0,0,0-71.57,444.66Z" transform="translate(73.32 -415.66)" fill="#231f20"/><rect x="11" y="27.5" width="8" height="1.5" rx="0.75" fill="#231f20"/><rect x="-75.57" y="429.91" width="8" height="1.5" rx="0.75" transform="translate(-428.91 -56.57) rotate(-90)" fill="#231f20"/><rect x="-49.07" y="429.91" width="8" height="1.5" rx="0.75" transform="translate(-402.41 -30.07) rotate(-90)" fill="#231f20"/></svg>