<svg xmlns="http://www.w3.org/2000/svg" width="1.5" height="378" viewBox="0 0 1.5 378"><path d="M-168.18-28v-5.68a.7.7,0,0,1,.75-.66h0a.71.71,0,0,1,.75.66V-28a.71.71,0,0,1-.75.66h0A.7.7,0,0,1-168.18-28Z" transform="translate(168.18 34.35)" fill="#d0d0d0"/><path d="M-168.18-16.1v-6.5a.75.75,0,0,1,.75-.75h0a.76.76,0,0,1,.75.75v6.5a.76.76,0,0,1-.75.75h0A.75.75,0,0,1-168.18-16.1Z" transform="translate(168.18 34.35)" fill="#d0d0d0"/><path d="M-168.18-4.1v-6.5a.75.75,0,0,1,.75-.75h0a.76.76,0,0,1,.75.75v6.5a.76.76,0,0,1-.75.75h0A.75.75,0,0,1-168.18-4.1Z" transform="translate(168.18 34.35)" fill="#d0d0d0"/><path d="M-168.18,7.9V1.4a.75.75,0,0,1,.75-.75h0a.76.76,0,0,1,.75.75V7.9a.76.76,0,0,1-.75.75h0A.75.75,0,0,1-168.18,7.9Z" transform="translate(168.18 34.35)" fill="#d0d0d0"/><path d="M-168.18,19.9V13.4a.75.75,0,0,1,.75-.75h0a.76.76,0,0,1,.75.75v6.5a.76.76,0,0,1-.75.75h0A.75.75,0,0,1-168.18,19.9Z" transform="translate(168.18 34.35)" fill="#d0d0d0"/><path d="M-168.18,31.9V25.4a.75.75,0,0,1,.75-.75h0a.76.76,0,0,1,.75.75v6.5a.76.76,0,0,1-.75.75h0A.75.75,0,0,1-168.18,31.9Z" transform="translate(168.18 34.35)" fill="#d0d0d0"/><path d="M-168.18,43.9V37.4a.75.75,0,0,1,.75-.75h0a.76.76,0,0,1,.75.75v6.5a.76.76,0,0,1-.75.75h0A.75.75,0,0,1-168.18,43.9Z" transform="translate(168.18 34.35)" fill="#d0d0d0"/><path d="M-168.18,55.9V49.4a.75.75,0,0,1,.75-.75h0a.76.76,0,0,1,.75.75v6.5a.76.76,0,0,1-.75.75h0A.75.75,0,0,1-168.18,55.9Z" transform="translate(168.18 34.35)" fill="#d0d0d0"/><path d="M-168.18,67.9V61.4a.75.75,0,0,1,.75-.75h0a.76.76,0,0,1,.75.75v6.5a.76.76,0,0,1-.75.75h0A.75.75,0,0,1-168.18,67.9Z" transform="translate(168.18 34.35)" fill="#d0d0d0"/><path d="M-168.18,79.9V73.4a.75.75,0,0,1,.75-.75h0a.76.76,0,0,1,.75.75v6.5a.76.76,0,0,1-.75.75h0A.75.75,0,0,1-168.18,79.9Z" transform="translate(168.18 34.35)" fill="#d0d0d0"/><path d="M-168.18,91.9V85.4a.75.75,0,0,1,.75-.75h0a.76.76,0,0,1,.75.75v6.5a.76.76,0,0,1-.75.75h0A.75.75,0,0,1-168.18,91.9Z" transform="translate(168.18 34.35)" fill="#d0d0d0"/><path d="M-168.18,103.9V97.4a.75.75,0,0,1,.75-.75h0a.76.76,0,0,1,.75.75v6.5a.76.76,0,0,1-.75.75h0A.75.75,0,0,1-168.18,103.9Z" transform="translate(168.18 34.35)" fill="#d0d0d0"/><path d="M-168.18,115.9v-6.5a.75.75,0,0,1,.75-.75h0a.76.76,0,0,1,.75.75v6.5a.76.76,0,0,1-.75.75h0A.75.75,0,0,1-168.18,115.9Z" transform="translate(168.18 34.35)" fill="#d0d0d0"/><path d="M-168.18,127.9v-6.5a.75.75,0,0,1,.75-.75h0a.76.76,0,0,1,.75.75v6.5a.76.76,0,0,1-.75.75h0A.75.75,0,0,1-168.18,127.9Z" transform="translate(168.18 34.35)" fill="#d0d0d0"/><path d="M-168.18,139.9v-6.5a.75.75,0,0,1,.75-.75h0a.76.76,0,0,1,.75.75v6.5a.76.76,0,0,1-.75.75h0A.75.75,0,0,1-168.18,139.9Z" transform="translate(168.18 34.35)" fill="#d0d0d0"/><path d="M-168.18,151.9v-6.5a.75.75,0,0,1,.75-.75h0a.76.76,0,0,1,.75.75v6.5a.76.76,0,0,1-.75.75h0A.75.75,0,0,1-168.18,151.9Z" transform="translate(168.18 34.35)" fill="#d0d0d0"/><path d="M-168.18,163.9v-6.5a.75.75,0,0,1,.75-.75h0a.76.76,0,0,1,.75.75v6.5a.76.76,0,0,1-.75.75h0A.75.75,0,0,1-168.18,163.9Z" transform="translate(168.18 34.35)" fill="#d0d0d0"/><path d="M-168.18,175.9v-6.5a.75.75,0,0,1,.75-.75h0a.76.76,0,0,1,.75.75v6.5a.76.76,0,0,1-.75.75h0A.75.75,0,0,1-168.18,175.9Z" transform="translate(168.18 34.35)" fill="#d0d0d0"/><path d="M-168.18,187.9v-6.5a.75.75,0,0,1,.75-.75h0a.76.76,0,0,1,.75.75v6.5a.76.76,0,0,1-.75.75h0A.75.75,0,0,1-168.18,187.9Z" transform="translate(168.18 34.35)" fill="#d0d0d0"/><path d="M-168.18,199.9v-6.5a.75.75,0,0,1,.75-.75h0a.76.76,0,0,1,.75.75v6.5a.76.76,0,0,1-.75.75h0A.75.75,0,0,1-168.18,199.9Z" transform="translate(168.18 34.35)" fill="#d0d0d0"/><path d="M-168.18,211.9v-6.5a.75.75,0,0,1,.75-.75h0a.76.76,0,0,1,.75.75v6.5a.76.76,0,0,1-.75.75h0A.75.75,0,0,1-168.18,211.9Z" transform="translate(168.18 34.35)" fill="#d0d0d0"/><path d="M-168.18,223.9v-6.5a.75.75,0,0,1,.75-.75h0a.76.76,0,0,1,.75.75v6.5a.76.76,0,0,1-.75.75h0A.75.75,0,0,1-168.18,223.9Z" transform="translate(168.18 34.35)" fill="#d0d0d0"/><path d="M-168.18,235.9v-6.5a.75.75,0,0,1,.75-.75h0a.76.76,0,0,1,.75.75v6.5a.76.76,0,0,1-.75.75h0A.75.75,0,0,1-168.18,235.9Z" transform="translate(168.18 34.35)" fill="#d0d0d0"/><path d="M-168.18,247.9v-6.5a.75.75,0,0,1,.75-.75h0a.76.76,0,0,1,.75.75v6.5a.76.76,0,0,1-.75.75h0A.75.75,0,0,1-168.18,247.9Z" transform="translate(168.18 34.35)" fill="#d0d0d0"/><path d="M-168.18,259.9v-6.5a.75.75,0,0,1,.75-.75h0a.76.76,0,0,1,.75.75v6.5a.76.76,0,0,1-.75.75h0A.75.75,0,0,1-168.18,259.9Z" transform="translate(168.18 34.35)" fill="#d0d0d0"/><path d="M-168.18,271.9v-6.5a.75.75,0,0,1,.75-.75h0a.76.76,0,0,1,.75.75v6.5a.76.76,0,0,1-.75.75h0A.75.75,0,0,1-168.18,271.9Z" transform="translate(168.18 34.35)" fill="#d0d0d0"/><path d="M-168.18,283.9v-6.5a.75.75,0,0,1,.75-.75h0a.76.76,0,0,1,.75.75v6.5a.76.76,0,0,1-.75.75h0A.75.75,0,0,1-168.18,283.9Z" transform="translate(168.18 34.35)" fill="#d0d0d0"/><path d="M-168.18,295.9v-6.5a.75.75,0,0,1,.75-.75h0a.76.76,0,0,1,.75.75v6.5a.76.76,0,0,1-.75.75h0A.75.75,0,0,1-168.18,295.9Z" transform="translate(168.18 34.35)" fill="#d0d0d0"/><path d="M-168.18,307.9v-6.5a.75.75,0,0,1,.75-.75h0a.76.76,0,0,1,.75.75v6.5a.76.76,0,0,1-.75.75h0A.75.75,0,0,1-168.18,307.9Z" transform="translate(168.18 34.35)" fill="#d0d0d0"/><path d="M-168.18,319.9v-6.5a.75.75,0,0,1,.75-.75h0a.76.76,0,0,1,.75.75v6.5a.76.76,0,0,1-.75.75h0A.75.75,0,0,1-168.18,319.9Z" transform="translate(168.18 34.35)" fill="#d0d0d0"/><path d="M-168.18,331.9v-6.5a.75.75,0,0,1,.75-.75h0a.76.76,0,0,1,.75.75v6.5a.76.76,0,0,1-.75.75h0A.75.75,0,0,1-168.18,331.9Z" transform="translate(168.18 34.35)" fill="#d0d0d0"/><path d="M-168.18,343v-5.68a.7.7,0,0,1,.75-.66h0a.71.71,0,0,1,.75.66V343a.71.71,0,0,1-.75.66h0A.7.7,0,0,1-168.18,343Z" transform="translate(168.18 34.35)" fill="#d0d0d0"/></svg>